<svg width="24" height="24" viewBox="0 0 24 24" fill="none" xmlns="http://www.w3.org/2000/svg">
<path fill-rule="evenodd" clip-rule="evenodd" d="M12 2C17.5228 2 22 6.47715 22 12C22 17.5228 17.5228 22 12 22C6.47715 22 2 17.5228 2 12C2 6.47715 6.47715 2 12 2ZM12 8C11.7679 8 11.5442 8.08075 11.3662 8.22656L11.293 8.29297L7.29297 12.293C6.90244 12.6835 6.90244 13.3165 7.29297 13.707C7.6835 14.0975 8.31652 14.0975 8.70703 13.707L12 10.4141L15.293 13.707C15.6835 14.0975 16.3165 14.0975 16.707 13.707C17.0975 13.3165 17.0975 12.6835 16.707 12.293L12.707 8.29297C12.5195 8.10545 12.2652 8.00002 12 8Z" fill="#1C1F28"/>
</svg>
