<svg width="24" height="24" viewBox="0 0 24 24" fill="none" xmlns="http://www.w3.org/2000/svg">
<path d="M15 18.5C15 19.0529 14.981 19.4266 14.8555 19.6777C14.8099 19.7689 14.756 19.8286 14.6709 19.876C14.5757 19.9289 14.3803 19.9992 14.0068 20C13.9488 19.9087 13.875 19.7188 13.7871 19.3379C13.7147 19.0242 13.6078 18.4495 13.4902 18.0029C13.3609 17.5116 13.1704 16.9528 12.832 16.4453C12.4521 15.8754 12.0022 15.4333 11.5068 14.9775C11.0015 14.5126 10.4373 14.0233 9.70703 13.293C9.08189 12.6678 8.51564 12.2682 8 12.0684V4.74219C10.6648 4.00796 13.6739 4 16 4C17.5322 4 18.378 4.70746 18.6191 4.99609C19.531 7.33244 20 10.1522 20 13C20 13.8864 19.7841 14.2015 19.6748 14.3086C19.5644 14.4166 19.372 14.5 19 14.5C18.7535 14.5 18.2339 14.4345 17.5723 14.3232C16.9381 14.2166 16.2479 14.0816 15.7031 13.9678C15.1547 13.8532 14.6974 14.1299 14.4639 14.4619C14.2341 14.7889 14.1355 15.2824 14.3789 15.7432L14.498 15.9873C14.771 16.5942 15 17.455 15 18.5ZM4 4H6V13H4V4ZM17 18.5C17 17.6468 16.8771 16.8718 16.6885 16.1963C16.8737 16.2301 17.0591 16.2653 17.2412 16.2959C17.8828 16.4038 18.5615 16.5 19 16.5C19.6278 16.5 20.4356 16.3638 21.0752 15.7373C21.7157 15.1098 22 14.1749 22 13C22 9.90645 21.4869 6.78479 20.4365 4.14941C20.4074 4.07645 20.368 3.99659 20.3125 3.91602C19.7804 3.14323 18.3111 2 16 2C13.8089 2 10.6814 1.99651 7.78613 2.73242C7.5242 2.29449 7.04739 2 6.5 2H3.5C2.67158 2 2.00001 2.67159 2 3.5V13.5C2 14.3284 2.67157 15 3.5 15H6.5C7.05166 15 7.53241 14.7014 7.79297 14.2578C7.93307 14.3694 8.10044 14.5145 8.29297 14.707C9.06259 15.4766 9.68875 16.0218 10.1533 16.4492C10.6278 16.8858 10.9278 17.1944 11.168 17.5547C11.3295 17.797 11.4516 18.1135 11.5566 18.5127C11.6734 18.9564 11.7229 19.2886 11.8379 19.7871C11.9327 20.1979 12.075 20.7278 12.375 21.1582C12.7289 21.6658 13.2764 22 14 22C14.622 22 15.1749 21.8832 15.6416 21.624C16.1189 21.3589 16.4401 20.9811 16.6445 20.5723C17.019 19.8234 17 18.9471 17 18.5Z" fill="#1C1F28"/>
</svg>
