<svg width="24" height="24" viewBox="0 0 24 24" fill="none" xmlns="http://www.w3.org/2000/svg">
<path d="M9 7C10.1046 7 11 7.89543 11 9C11 10.1046 10.1046 11 9 11C7.89543 11 7 10.1046 7 9C7 7.89543 7.89543 7 9 7Z" fill="#1C1F28"/>
<path fill-rule="evenodd" clip-rule="evenodd" d="M19 2C20.6569 2 22 3.34315 22 5V19C22 20.6569 20.6569 22 19 22H5C3.34315 22 2 20.6569 2 19V5C2 3.34315 3.34315 2 5 2H19ZM5 4C4.44772 4 4 4.44772 4 5V19C4 19.3573 4.18793 19.6698 4.46973 19.8467L14.8291 10.5908C15.2114 10.2544 15.7853 10.2591 16.1621 10.6016L20 14.0898V5C20 4.44772 19.5523 4 19 4H5Z" fill="#1C1F28"/>
</svg>
