<svg width="24" height="24" viewBox="0 0 24 24" fill="none" xmlns="http://www.w3.org/2000/svg">
<path d="M2.5 6C2.22386 6 2 5.77614 2 5.5L2 5.33301C2.00016 3.49221 3.34324 2 5 2L10.5 2C10.7761 2 11 2.22386 11 2.5L11 5.5C11 5.77614 10.7761 6 10.5 6L2.5 6Z" fill="#1C1F28"/>
<path d="M2.5 11C2.22386 11 2 10.7761 2 10.5L2 8.5C2 8.22386 2.22386 8 2.5 8L10.5 8C10.7761 8 11 8.22386 11 8.5L11 10.5C11 10.7761 10.7761 11 10.5 11L2.5 11Z" fill="#1C1F28"/>
<path d="M2.5 16C2.22386 16 2 15.7761 2 15.5L2 13.5C2 13.2239 2.22386 13 2.5 13L10.5 13C10.7761 13 11 13.2239 11 13.5L11 15.5C11 15.7761 10.7761 16 10.5 16L2.5 16Z" fill="#1C1F28"/>
<path d="M5 22C3.34324 22 2.00016 20.5078 2 18.667L2 18.5C2 18.2239 2.22386 18 2.5 18L10.5 18C10.7761 18 11 18.2239 11 18.5L11 21.5C11 21.7761 10.7761 22 10.5 22L5 22Z" fill="#1C1F28"/>
<path d="M13.5 6C13.2239 6 13 5.77614 13 5.5L13 2.5C13 2.22386 13.2239 2 13.5 2L19 2C20.6568 2 21.9998 3.49221 22 5.33301L22 5.5C22 5.77614 21.7761 6 21.5 6L13.5 6Z" fill="#1C1F28"/>
<path d="M13.5 11C13.2239 11 13 10.7761 13 10.5L13 8.5C13 8.22386 13.2239 8 13.5 8L21.5 8C21.7761 8 22 8.22386 22 8.5L22 10.5C22 10.7761 21.7761 11 21.5 11L13.5 11Z" fill="#1C1F28"/>
<path d="M13.5 16C13.2239 16 13 15.7761 13 15.5L13 13.5C13 13.2239 13.2239 13 13.5 13L21.5 13C21.7761 13 22 13.2239 22 13.5L22 15.5C22 15.7761 21.7761 16 21.5 16L13.5 16Z" fill="#1C1F28"/>
<path d="M22 18.667C21.9998 20.5078 20.6568 22 19 22L13.5 22C13.2239 22 13 21.7761 13 21.5L13 18.5C13 18.2239 13.2239 18 13.5 18L21.5 18C21.7761 18 22 18.2239 22 18.5L22 18.667Z" fill="#1C1F28"/>
</svg>
