<svg width="24" height="24" viewBox="0 0 24 24" fill="none" xmlns="http://www.w3.org/2000/svg">
<path d="M18 13.9279C18 12.838 17.3262 11.7368 16.207 10.6134C15.1866 9.58917 13.9915 8.72534 12.9688 7.92786H11.0312C10.0085 8.72534 8.81343 9.58917 7.79297 10.6134C6.67378 11.7368 6 12.838 6 13.9279C6 17.2416 8.68629 19.9279 12 19.9279C15.3137 19.9279 18 17.2416 18 13.9279ZM10 14.9279C10.5058 14.9279 10.9225 15.3036 10.9893 15.7911C11.0065 15.8075 11.0589 15.8516 11.1816 15.8956C11.3309 15.9492 11.5872 16.005 12 16.005C12.7847 16.005 12.9323 15.776 12.9395 15.7658C12.9873 15.6995 13 15.6052 13 15.4659C12.9999 15.3202 12.9602 15.2646 12.9316 15.2316C12.886 15.179 12.7956 15.1134 12.6406 15.0538C12.489 14.9955 12.3233 14.9612 12.1855 14.9435C12.1193 14.935 12.0655 14.9317 12.0312 14.9298C12.0145 14.9289 12.0027 14.928 11.9971 14.9279H11.9814C11.9735 14.9278 11.9637 14.9272 11.9521 14.9269C11.9285 14.9263 11.897 14.925 11.8594 14.923C11.7842 14.9189 11.6816 14.9112 11.5605 14.8956C11.3234 14.8652 10.9888 14.803 10.6406 14.6691C10.2959 14.5364 9.88599 14.3137 9.55664 13.9337C9.21038 13.5341 9.00008 13.0128 9 12.3898C9 12.2213 8.9873 11.5451 9.43945 10.9191C9.78437 10.4416 10.3052 10.1108 11 9.95423V9.92786C11 9.37558 11.4477 8.92786 12 8.92786C12.5523 8.92786 13 9.37558 13 9.92786V9.94251C13.6516 10.0734 14.1395 10.3398 14.4824 10.7091C14.7238 10.9691 14.8549 11.2413 14.9238 11.464C14.9579 11.5742 14.9769 11.6718 14.9873 11.7501C14.9925 11.7893 14.9962 11.824 14.998 11.8536C14.999 11.8684 14.9987 11.8824 14.999 11.8947C14.9992 11.9008 14.9999 11.9068 15 11.9122V11.9259C15 11.9268 15 11.9279 14 11.9279H15C15 12.4801 14.5523 12.9279 14 12.9279C13.4938 12.9279 13.076 12.5516 13.0098 12.0636C12.9915 12.0466 12.9388 12.0033 12.8184 11.9601C12.6691 11.9065 12.4128 11.8507 12 11.8507C11.2153 11.8507 11.0677 12.0797 11.0605 12.09C11.0127 12.1562 11 12.2505 11 12.3898C11.0001 12.5355 11.0398 12.5912 11.0684 12.6242C11.114 12.6767 11.2044 12.7423 11.3594 12.8019C11.511 12.8602 11.6767 12.8946 11.8145 12.9122C11.8807 12.9207 11.9345 12.924 11.9688 12.9259C11.9855 12.9268 11.9973 12.9277 12.0029 12.9279H12.0186C12.0265 12.928 12.0363 12.9285 12.0479 12.9288C12.0715 12.9294 12.103 12.9307 12.1406 12.9327C12.2157 12.9369 12.3184 12.9446 12.4395 12.9601C12.6766 12.9905 13.0112 13.0527 13.3594 13.1867C13.7041 13.3193 14.114 13.542 14.4434 13.922C14.7896 14.3216 14.9999 14.843 15 15.4659C15 15.6344 15.0127 16.3106 14.5605 16.9367C14.2157 17.4141 13.6947 17.7439 13 17.9005V17.9279C13 18.4801 12.5523 18.9279 12 18.9279C11.4477 18.9279 11 18.4801 11 17.9279V17.9122C10.3485 17.7814 9.86048 17.5158 9.51758 17.1466C9.27616 16.8866 9.1451 16.6144 9.07617 16.3917C9.04206 16.2815 9.02309 16.1839 9.0127 16.1056C9.0075 16.0664 9.0038 16.0317 9.00195 16.0021C9.00104 15.9873 9.00135 15.9733 9.00098 15.9611C9.00079 15.9549 9.00008 15.949 9 15.9435V15.9298C9 15.9289 9 15.9279 10 15.9279H9C9 15.3756 9.44772 14.9279 10 14.9279ZM11 15.921V15.9015C10.9998 15.8932 10.9995 15.8851 10.999 15.8781C10.9985 15.8698 10.9968 15.8624 10.9961 15.8556C10.9976 15.8773 10.9999 15.899 11 15.921ZM13 11.9542C13.0002 11.9625 13.0005 11.9707 13.001 11.9777C13.0014 11.9851 13.0023 11.9919 13.0029 11.9982L13 11.9347V11.9542ZM13.8594 4.33509C13.317 4.38942 12.6943 4.42786 12 4.42786C11.3053 4.42786 10.6822 4.38948 10.1396 4.33509L11.2021 5.92786H12.7979L13.8594 4.33509ZM20 13.9279C20 18.3461 16.4183 21.9279 12 21.9279C7.58172 21.9279 4 18.3461 4 13.9279C4 12.0178 5.15737 10.4255 6.37598 9.20228C6.9591 8.61697 7.60958 8.06614 8.2334 7.56849C8.08817 7.39489 8 7.1719 8 6.92786C8 6.44039 8.34891 6.035 8.81055 5.94642L7.49121 3.9679C7.16158 3.47346 7.28145 2.92241 7.52051 2.58802C7.74287 2.27711 8.16755 2.01018 8.67969 2.08216L8.7832 2.10071L9.32227 2.20814C9.95506 2.31882 10.8655 2.42786 12 2.42786C13.5129 2.42786 14.628 2.23418 15.2168 2.10071L15.3203 2.08216C15.8325 2.01018 16.2571 2.27711 16.4795 2.58802C16.7186 2.92241 16.8384 3.47346 16.5088 3.9679L15.1885 5.94642C15.6506 6.03463 16 6.44006 16 6.92786C16 7.17213 15.9111 7.39482 15.7656 7.56849C16.3896 8.06627 17.0407 8.61678 17.624 9.20228C18.8426 10.4255 20 12.0178 20 13.9279Z" fill="#1C1F28"/>
</svg>
